<svg width="23" height="27" viewBox="0 0 23 27" fill="none" xmlns="http://www.w3.org/2000/svg">
<path d="M7.7002 5.6998L11.6002 1.7998M11.6002 1.7998L15.5002 5.6998M11.6002 1.7998V14.7998M5.10049 10.8998C3.88905 10.8998 3.28332 10.8998 2.80552 11.0977C2.16844 11.3616 1.66199 11.8681 1.39811 12.5051C1.2002 12.9829 1.2002 13.5884 1.2002 14.7998V21.0398C1.2002 22.4959 1.2002 23.2235 1.48358 23.7797C1.73285 24.2689 2.13031 24.6674 2.61953 24.9167C3.17516 25.1998 3.90289 25.1998 5.35618 25.1998H17.8448C19.2981 25.1998 20.0248 25.1998 20.5804 24.9167C21.0697 24.6674 21.4678 24.2689 21.7171 23.7797C22.0002 23.224 22.0002 22.4971 22.0002 21.0438V14.7998C22.0002 13.5884 22.0001 12.9829 21.8021 12.5051C21.5383 11.8681 21.0322 11.3616 20.3952 11.0977C19.9174 10.8998 19.3116 10.8998 18.1002 10.8998" stroke="black" stroke-width="2" stroke-linecap="round" stroke-linejoin="round"/>
</svg>
