<svg width="32" height="32" viewBox="0 0 32 32" fill="none" xmlns="http://www.w3.org/2000/svg">
<g clip-path="url(#clip0_1599_107)">
<path d="M12.9779 16.6691C12.9779 16.9766 12.8684 17.2374 12.6495 17.4517C12.3328 17.7544 11.8786 17.9058 11.2871 17.9058C10.7794 17.9058 10.3462 17.787 9.98755 17.5495C9.98755 17.6287 9.98289 17.6915 9.97357 17.7381C9.95028 17.8126 9.87576 17.8499 9.75 17.8499V16.3687H10.0225C10.0411 16.6156 10.0923 16.8345 10.1762 17.0255C10.3765 17.4773 10.7235 17.7032 11.2172 17.7032C11.3476 17.7032 11.4664 17.6846 11.5735 17.6473C11.8717 17.5355 12.0207 17.3119 12.0207 16.9766C12.0207 16.8787 11.9997 16.7833 11.9578 16.6901C11.86 16.4945 11.6108 16.2919 11.2102 16.0823C10.7631 15.854 10.5116 15.7213 10.4557 15.684C10.0132 15.4092 9.79192 15.0785 9.79192 14.6919C9.79192 14.431 9.88274 14.2051 10.0644 14.0142C10.3485 13.7207 10.7724 13.574 11.336 13.574C11.7645 13.574 12.1721 13.6648 12.5587 13.8465C12.5587 13.8046 12.561 13.7673 12.5657 13.7347C12.589 13.6462 12.6658 13.6019 12.7962 13.6019V14.8666H12.5238C12.5191 14.615 12.4585 14.3984 12.3421 14.2168C12.1511 13.928 11.8647 13.7836 11.4827 13.7836C11.3849 13.7836 11.2917 13.7976 11.2032 13.8255C10.9377 13.914 10.805 14.0957 10.805 14.3705C10.805 14.4776 10.8283 14.5801 10.8749 14.6779C10.9727 14.8782 11.2172 15.0808 11.6085 15.2858C12.037 15.514 12.2815 15.6444 12.3421 15.677C12.766 15.9518 12.9779 16.2825 12.9779 16.6691ZM14.9831 14.2727C14.9831 14.459 15.0646 14.7128 15.2276 15.0342C15.3441 14.9877 15.4489 14.9294 15.542 14.8596C15.7749 14.6826 15.8914 14.4869 15.8914 14.2727C15.8821 13.9559 15.726 13.7883 15.4233 13.7696C15.3581 13.7696 15.2998 13.7813 15.2486 13.8046C15.0716 13.8791 14.9831 14.0351 14.9831 14.2727ZM15.1578 17.6962C15.4466 17.6962 15.7051 17.6193 15.9333 17.4656C15.3231 16.753 14.862 16.0916 14.5499 15.4814C14.4055 15.5978 14.331 15.9122 14.3263 16.4246C14.3263 16.7087 14.345 16.9323 14.3822 17.0953C14.4754 17.4959 14.7339 17.6962 15.1578 17.6962ZM16.9534 15.6072C16.9534 16.1381 16.8393 16.6039 16.611 17.0045C16.8672 17.298 17.0605 17.5145 17.1909 17.6543H17.3097C17.333 17.6543 17.354 17.6566 17.3726 17.6613C17.4471 17.6706 17.4844 17.7288 17.4844 17.8359H16.2617L16.0521 17.6054C15.74 17.801 15.3674 17.9011 14.9342 17.9058C14.5429 17.9058 14.2146 17.8103 13.9491 17.6193C13.609 17.3725 13.439 17.0348 13.439 16.6063C13.439 16.4945 13.4507 16.3873 13.474 16.2849C13.5811 15.8005 13.9118 15.4767 14.4661 15.3137C14.317 14.983 14.2402 14.7059 14.2355 14.4823C14.2355 14.2773 14.2914 14.1003 14.4032 13.9513C14.5942 13.6998 14.8876 13.574 15.2835 13.574C15.4046 13.574 15.5164 13.5903 15.6189 13.6229C15.931 13.7207 16.087 13.9373 16.087 14.2727C16.087 14.3658 16.0661 14.4636 16.0241 14.5661C15.8984 14.8549 15.6608 15.0645 15.3115 15.1949C15.563 15.6421 15.9519 16.1917 16.4783 16.8438C16.6646 16.4852 16.7577 16.0683 16.7577 15.5932H16.3735V15.4115H17.3796C17.3796 15.4488 17.3749 15.4837 17.3656 15.5163C17.3516 15.5722 17.2911 15.6002 17.1839 15.6002L16.9673 15.6072H16.9464H16.9534ZM19.6153 17.8359H17.5193V17.6473H18.0782V13.8325H17.5193V13.6439H19.6153V13.8325H19.0564V15.5722H20.831V13.8325H20.2721V13.6439H22.3681V13.8325H21.8092V17.6473H22.1795C22.2773 17.6566 22.3402 17.7195 22.3681 17.8359H20.2721V17.6473H20.831V15.7818H19.0564V17.6473H19.4267C19.5245 17.6566 19.5874 17.7195 19.6153 17.8359Z" fill="white"/>
<circle cx="3.77219" cy="25.3645" r="0.780488" fill="#F56A77"/>
<circle cx="1.82102" cy="21.9836" r="0.780488" fill="#F97C78"/>
<circle cx="0.780244" cy="18.0813" r="0.780488" fill="#F68A7C"/>
<circle cx="0.780244" cy="14.0481" r="0.780488" fill="#FC9E85"/>
<circle cx="1.82102" cy="10.1457" r="0.780488" fill="#FDAC8B"/>
<circle cx="3.90256" cy="6.63205" r="0.780488" fill="#FEBC93"/>
<circle cx="6.634" cy="3.77072" r="0.780488" fill="#F3C9A1"/>
<circle cx="10.0161" cy="1.81955" r="0.780488" fill="#D9CBB1"/>
<circle cx="14.0488" cy="0.780488" r="0.780488" fill="#B6CCC5"/>
<circle cx="18.2112" cy="0.780488" r="0.780488" fill="#93CDD8"/>
<circle cx="21.8537" cy="1.81955" r="0.780488" fill="#5CCDF4"/>
<circle cx="25.2356" cy="3.90158" r="0.780488" fill="#51CAF3"/>
<circle cx="28.0974" cy="6.63205" r="0.780488" fill="#51C1F2"/>
<circle cx="30.1789" cy="10.0149" r="0.780488" fill="#5DB3F2"/>
<circle cx="31.2195" cy="13.9172" r="0.780488" fill="#68A1F2"/>
<circle cx="31.2195" cy="17.9504" r="0.780488" fill="#7C8CF4"/>
<circle cx="30.1789" cy="22.1125" r="0.780488" fill="#976DF3"/>
<circle cx="28.0974" cy="25.2336" r="0.780488" fill="#B056F6"/>
<circle cx="25.3657" cy="28.2278" r="0.780488" fill="#C546F5"/>
<circle cx="21.8537" cy="30.1789" r="0.780488" fill="#D343E2"/>
<circle cx="17.821" cy="31.218" r="0.780488" fill="#DF43C9"/>
<circle cx="13.9187" cy="31.218" r="0.780488" fill="#EA42A8"/>
<circle cx="10.1462" cy="30.3078" r="0.780488" fill="#EC4187"/>
<circle cx="6.634" cy="28.2278" r="0.780488" fill="#EF5574"/>
<circle cx="6.3738" cy="23.4141" r="0.650406" fill="#F8819B"/>
<circle cx="6.63405" cy="25.4942" r="0.650406" fill="#F6718F"/>
<circle cx="8.58522" cy="25.7559" r="0.650406" fill="#D76896"/>
<circle cx="9.23586" cy="27.5762" r="0.650406" fill="#EF5EA0"/>
<circle cx="11.3169" cy="27.3164" r="0.650406" fill="#EC60B1"/>
<circle cx="12.8779" cy="29.0078" r="0.650406" fill="#EF57B1"/>
<circle cx="14.699" cy="28.0977" r="0.650406" fill="#EE61C5"/>
<circle cx="16" cy="29.5274" r="0.650406" fill="#E854C8"/>
<circle cx="17.5608" cy="28.2266" r="0.650406" fill="#E65FD9"/>
<circle cx="19.6421" cy="28.877" r="0.650406" fill="#E055DC"/>
<circle cx="20.813" cy="27.3164" r="0.650406" fill="#D563E1"/>
<circle cx="22.7642" cy="27.5762" r="0.650406" fill="#D65AF0"/>
<circle cx="23.4146" cy="25.7559" r="0.650406" fill="#D769F5"/>
<circle cx="25.6257" cy="25.2344" r="0.650406" fill="#CD62F6"/>
<circle cx="25.6257" cy="23.543" r="0.650406" fill="#C677F7"/>
<circle cx="27.8374" cy="22.3731" r="0.650406" fill="#B274F5"/>
<circle cx="27.3172" cy="20.6817" r="0.650406" fill="#AD88F5"/>
<circle cx="29.0078" cy="19.1211" r="0.650406" fill="#958BF4"/>
<circle cx="27.9673" cy="17.4297" r="0.650406" fill="#9799F4"/>
<circle cx="29.3982" cy="15.8692" r="0.650406" fill="#819EF3"/>
<circle cx="28.0974" cy="14.4375" r="0.650406" fill="#85ABF4"/>
<circle cx="29.0078" cy="12.2266" r="0.650406" fill="#70B1F3"/>
<circle cx="27.187" cy="11.3164" r="0.650406" fill="#79BBF4"/>
<circle cx="27.7073" cy="9.10548" r="0.650406" fill="#6AC1F3"/>
<circle cx="25.886" cy="8.584" r="0.650406" fill="#76CCF5"/>
<circle cx="25.4959" cy="6.37306" r="0.650406" fill="#62CBF2"/>
<circle cx="23.5447" cy="6.37306" r="0.650406" fill="#77D5F6"/>
<circle cx="22.634" cy="4.16213" r="0.650406" fill="#6BD1F5"/>
<circle cx="20.9429" cy="4.68166" r="0.650406" fill="#81D0EC"/>
<circle cx="19.3819" cy="2.86134" r="0.650406" fill="#7CCDE5"/>
<circle cx="17.6909" cy="4.03127" r="0.650406" fill="#92C9D7"/>
<circle cx="16" cy="2.33986" r="0.650406" fill="#ABD2D5"/>
<circle cx="14.5689" cy="3.90236" r="0.650406" fill="#BCD4D1"/>
<circle cx="12.2276" cy="2.86134" r="0.650406" fill="#CCD0C2"/>
<circle cx="11.4473" cy="4.55275" r="0.650406" fill="#DCD4C1"/>
<circle cx="9.23586" cy="4.29103" r="0.650406" fill="#EAD0B2"/>
<circle cx="6.50392" cy="6.37306" r="0.650406" fill="#FFCDA5"/>
<circle cx="4.2925" cy="9.23439" r="0.650406" fill="#FEBC9D"/>
<circle cx="2.99171" cy="12.3574" r="0.650406" fill="#FCAA94"/>
<circle cx="3.90236" cy="14.4375" r="0.650406" fill="#FAA89D"/>
<circle cx="8.71539" cy="6.37189" r="0.520325" fill="#F4D4B4"/>
<circle cx="6.37384" cy="8.58478" r="0.520325" fill="#FEC8AA"/>
<circle cx="4.81281" cy="11.3152" r="0.520325" fill="#FDB7A2"/>
<circle cx="6.82906" cy="21.3967" r="0.455285" fill="#E5889D"/>
<circle cx="8.3901" cy="23.4787" r="0.455285" fill="#F78BB0"/>
<circle cx="10.7317" cy="25.299" r="0.455285" fill="#F57BBE"/>
<circle cx="13.3332" cy="26.34" r="0.455285" fill="#F073CA"/>
<circle cx="16.0647" cy="26.5998" r="0.455285" fill="#EE72D9"/>
<circle cx="18.9265" cy="26.34" r="0.455285" fill="#E771E6"/>
<circle cx="21.3984" cy="25.1701" r="0.455285" fill="#E27BF2"/>
<circle cx="23.6096" cy="23.4787" r="0.455285" fill="#D980F5"/>
<circle cx="25.3007" cy="21.2678" r="0.455285" fill="#C590F6"/>
<circle cx="26.3413" cy="18.5354" r="0.455285" fill="#AC9CF5"/>
<circle cx="26.6015" cy="15.9338" r="0.455285" fill="#9DABF4"/>
<circle cx="26.3413" cy="13.2014" r="0.455285" fill="#8FBBF4"/>
<circle cx="25.1709" cy="10.4709" r="0.455285" fill="#85CBF5"/>
<circle cx="23.3496" cy="8.38888" r="0.455285" fill="#86DAF7"/>
<circle cx="21.1381" cy="6.69747" r="0.455285" fill="#87DAF7"/>
<circle cx="18.5366" cy="5.78732" r="0.455285" fill="#9ADCEF"/>
<circle cx="15.8049" cy="5.26778" r="0.455285" fill="#B0D4D8"/>
<circle cx="13.2028" cy="5.65841" r="0.455285" fill="#D3D8CD"/>
<circle cx="10.6015" cy="6.69747" r="0.455285" fill="#EAD8C1"/>
<circle cx="8.52023" cy="8.38888" r="0.455285" fill="#FED8B9"/>
<circle cx="6.69894" cy="10.7307" r="0.455285" fill="#FEC4B0"/>
<circle cx="5.65841" cy="13.0725" r="0.455285" fill="#FCB4A8"/>
<circle cx="5.3984" cy="16.0647" r="0.455285" fill="#FBA6A4"/>
<circle cx="5.78829" cy="18.7951" r="0.455285" fill="#FA9CA7"/>
<circle cx="4.74777" cy="20.8772" r="0.455285" fill="#F98C95"/>
<circle cx="4.42262" cy="22.6328" r="0.650406" fill="#F87E8B"/>
<circle cx="2.99171" cy="19.3809" r="0.650406" fill="#FA8C8A"/>
<circle cx="2.47145" cy="16" r="0.650406" fill="#FB9B8D"/>
<circle cx="4.03224" cy="17.6895" r="0.650406" fill="#FA9998"/>
</g>
<defs>
<clipPath id="clip0_1599_107">
<rect width="32" height="32" fill="white"/>
</clipPath>
</defs>
</svg>
